<svg width="500" height="460" xmlns="http://www.w3.org/2000/svg"><g class="layer"><path d="m323.17 2.44 16 1 1 82 5 5 10 8 11 10 9 11 9 12 7 11 2 4h74l4 1 18 1 1 14-4 1-18 1h-68l5 11 5 19 2 14 1 13v11l-3 25-7 25-4 10h80l11 1v15l-101 1-2 7-13 14-7 8-9 9h-2v2l-8 7-6 5h-2v79l3 1-3 1-1 11-2 1h-13l-2-4v-79l-14 6-18 6-14 3-13 2h-29l-25-4-17-5-16-7v73l-2 9h-16l-1-73-1-20-10-8-13-12-9-9-9-11-7-11v-2l-5 1-94-1-2-7v-7l1-1 20-1h70l-7-16-5-23-2-17v-24l4-24 5-18 3-7-5 1h-80l-3-1-1-15 98-1 2-6 10-15 5-7h2l2-4 12-13 8-7h2v-2h2v-2l7-5 1-83h15l2 6 1 11v42l1 13 16-7 15-5 13-3 8-1h37l21 3 16 5 18 8 1-3 1-70z" fill="#0F2335"/><path d="m247.17 127.44 4 1 18 18v2l4 2 4 4v2l4 2 27 27 3 2v2l4 2 9 10 7 8 6 7 3 2v122l-14 10-17 9-21 7-22 4-10 1h-14l-22-3-16-4-16-6-16-8-11-7-4-3v-122l14-14 7-8 35-35 6-7h2l2-4 13-12 11-11z" fill="#FAFCFC"/><path d="M234.17 76.44h28l19 3 16 5 12 5 16 9 12 9 11 9 7 8 9 10v2h2l12 20 5 10 7 21 4 18 1 25-2 20-5 19-6 16-11 21-8 10-2 3h-2v-58l1-23h9l5-4 2-4v-7l-6-9-15-16-5-5-5-4v-53l-4-6-4-3h-24l-9 6-4 8-5-2-7-6-28-28-8-4h-7l-8 4-12 11-1 2h-2l-2 4-97 97-3 5v6l4 7v2h15v81h-3l-8-11-7-10-8-16-5-13-4-20-2-20 1-23 3-18 4-14 6-15 8-14 9-13h2l2-4 6-7 3-3h2l1-3 8-7 11-9 16-9 15-7 16-5 19-3z" fill="#F9FBFB"/><path d="M7.17 308.44h101l6 10 7 9 12 13 8 8 11 9 5 4 1 20v72h-71l-15-4-20-8-16-12-7-8-8-13-7-15-5-17-1-5-1-63z" fill="#F9CC03"/><path d="M396.17 308.44h35l59 1v58l-2 14-6 18-9 14-4 1v2h-4l-11 9 3-1v4l-3 5h-2v4l-5 2-5 4h-3v2l-18 6-11 1-36 1h-34v-11l2-1-2-1-1-51 1-28 10-8 4-4h2v-2l8-7 8-8 7-8 8-10 2-5 7-1z" fill="#2DCCAD"/><path d="M338.17 4.44h65l18 3 16 6 16 10 14 14 9 14 6 14 5 18 1 7 1 53-1 6h-97l-6-12-12-16-13-15-13-11-8-6-1-2v-83z" fill="#FD594F"/><path d="M87.17 3.44h69l2 2v81l-6 5h-2v2h-2v2l-10 8-7 7-7 9h-2l-2 4-12 18-3 6h-97v-56l3-18 4-13 8-16 9-12 2-3h2v-2l14-10 17-8 11-4 9-2z" fill="#0F98F8"/><path d="M436.17 163.44h54v130l-91-1 1-5 5-16 4-14 3-25v-11l-2-21-4-18-5-14-1-4 36-1zM320.17 371.44h2l1 42v40l-1 1h-147v-77l1-5 6 2 16 6 21 5 15 2h29l23-4 16-5 16-6 2-1zM91.17 163.44h5l-3 10-6 25-2 14v24l3 23 5 20 5 11v2l-70 1h-21v-129l84-1zM175.17 3.44h147v72l-2 1-19-9-19-5-16-2h-37l-17 3-16 5-20 8-1-14v-59z" fill="#FAFCFC"/><path d="M320.17 371.44h2v14l-1 8-22 9-29 6-8 1h-26l-21-3-15-4-12-5-12-6-1-6v-8l1-5 6 2 16 6 21 5 15 2h29l23-4 16-5 16-6 2-1zM177.17 435.44h143l1 1 1 12 1 5-1 1h-147v-9l1-9 1-1z" fill="#D9E4E8"/><path d="M407.17 354.44h10l8 3 6 5 6 10 1 5v7l-3 9-9 10-10 4h-9l-10-5-8-9-3-6v-14l4-8 7-7 10-4z" fill="#F6FAFA"/><path d="m84.17 50.44 10 1 8 4 8 9 2 7v11l-4 9-5 5-5 4-10 3-9-1-10-5-6-7-3-7v-13l4-8 8-8 6-3 6-1z" fill="#F7FAFA"/><path d="M407.17 51.44h10l10 4 8 9 3 8v12l-4 8-7 7-10 4h-10l-9-4-7-6-4-7-1-3v-12l4-9 7-7 10-4z" fill="#F8FAFB"/><path d="m83.17 354.44 11 1 6 3v2l4 2 5 6 3 7v12l-5 10-5 4-7 4-5 1h-8l-9-3-10-9-3-8v-11l5-10 9-8 9-3z" fill="#F8FBFB"/><path d="M260.17 201.44h29l5 5v30l-6 6h-28l-3-3-1-3v-29l4-6z" fill="#0D2336"/><path d="M209.17 201.44h29l4 4v32l-4 5h-28l-5-5-1-3v-28l5-5z" fill="#0E2235"/><path d="M281.17 259.44h8l5 4v30l-5 6-27 1-5-5-1-2v-28l5-5 20-1z" fill="#0C2235"/><path d="M209.17 260.44h29l4 5v29l-2 3h-2v2l-27 1-6-5-1-2v-28l5-5z" fill="#0C2234"/><path d="M407.17 65.44h9l7 6 1 2v8l-7 8h-10l-6-5-2-4v-7l3-5 5-3z" fill="#33435A"/><path d="m411.17 367.44 9 3 4 6v8l-6 7-2 1h-7l-6-4-3-5v-8l5-6 6-2z" fill="#2DC8AC"/><path d="m84.17 64.44 8 1 5 4 2 6-2 7-5 5-2 1h-8l-5-4-3-6 1-6 6-7 3-1z" fill="#1496ED"/><path d="m85.17 368.44 7 1 6 7v8l-4 6-4 2-9-1-3-2v-2h-2l-1-2v-9l3-5 7-3z" fill="#2DCCAD"/><path d="M314.17 147.44h12v23h-3l-8-9-2-4 1-10z" fill="#F7F8F9"/><path d="m85.17 368.44 7 1 6 7v8l-4 6-4 2-9-1-3-2v-2h-2l-1-2v-9l3-5 7-3zm-3 2-4 4 1 10-1 2h2v2l6 3 5-1 4-4v-10l-4-5-2-1h-7z" fill="#585E6C"/><path d="M407.17 65.44h9l-1 3-7 1-1 4-3 5h-2l-1 3-2-1v-7l3-5 5-3z" fill="#1A283A"/><path d="m85.17 368.44 7 1 6 7v8l-4 6-3 1v-2h2l1-3v-10l-5-5-7-1 3-2z" fill="#4E5D6C"/><path d="m411.17 367.44 9 3-3 1-3-1-9 1v2h-2l-1 9 3 4v2l-3-1-2-4v-8l5-6 6-2z" fill="#496E77"/><path d="M300.17 379.44h5l-3 2-10 4-13 2h-7l4-2 21-5 3-1z" fill="#F0F5F6"/><path d="m84.17 64.44 4 1-9 5-3 6-1-4 6-7 3-1z" fill="#4C6371"/></g></svg>